<svg xmlns="http://www.w3.org/2000/svg" id="Layer_1" data-name="Layer 1" viewBox="0 0 155.66 31.65"><defs><style>.cls-1{fill:#45e660;}.cls-2{fill:#fff;}</style></defs><path class="cls-1" d="M150.37,23.17c-2.5-2.48-5-5-7.41-7.46l-7.45,7.44a.44.44,0,0,1-.23-.15l-2.63-2.63c-.22-.22-.22-.23,0-.45l3.58-3.47c.53-.51,1-1,1.56-1.58a.75.75,0,0,0-.39,0h-6.88c-.31,0-.31,0-.31-.33,0-1.2,0-2.4,0-3.6,0-.41,0-.41.45-.41h7.2c-.32-.32-.58-.59-.85-.85L135,7.8l-2.31-2.2-.15-.14c-.09-.08-.1-.15,0-.24l.09-.09,2.61-2.65c.26-.27.26-.26.53,0,1.53,1.56,3.05,3.13,4.57,4.69a.66.66,0,0,0,.29.21c0-.14,0-.26,0-.39,0-2.16,0-4.32,0-6.47,0-.62-.07-.53.55-.54h3.6c.45,0,.43,0,.43.42V7.51c.22-.22.38-.36.52-.52l2.51-2.58,1.92-2c.2-.2.21-.2.41,0l2.66,2.73c.14.14.12.23,0,.36L151.09,7.6l-.89.83-1.93,1.84a.45.45,0,0,0-.17.28h7.1c.5,0,.45,0,.46.43,0,1.12,0,2.24,0,3.36,0,.53.07.49-.47.49h-7.07c-.07.16.06.21.13.27l3.61,3.5c.48.46.91.95,1.41,1.37.2.16.08.27,0,.39L150.55,23Z"></path><path class="cls-2" d="M64,31.06a.61.61,0,0,1-.36.05c-1.55,0-3.09,0-4.63,0a.66.66,0,0,1-.58-.28q-3.78-4.61-7.57-9.2a1,1,0,0,0-.13-.16c-.12.08-.07.2-.07.29q0,4.43,0,8.84c0,.57.07.5-.5.5h-3.4c-.45,0-.41,0-.41-.43V18.85q0-7.5,0-15c0-.51-.08-.45.46-.45h3.44c.47,0,.4,0,.4.43,0,5.17,0,10.34,0,15.51V20.8a.51.51,0,0,0,.29-.24c2.47-3,4.94-6,7.39-9a.92.92,0,0,1,.83-.38c1.46,0,2.92,0,4.38,0h.44a1.24,1.24,0,0,1-.29.42L55.8,20.75c-.34.4-.34.4,0,.78q3.94,4.57,7.87,9.16Z"></path><path class="cls-2" d="M30.17,13.73c.15,0,.17-.12.22-.19A6.63,6.63,0,0,1,35,10.71a8.22,8.22,0,0,1,3.85.22,6.76,6.76,0,0,1,4.05,3.47A11.16,11.16,0,0,1,44,19c.09,1.76,0,3.52,0,5.28,0,2.13,0,4.26,0,6.38,0,.45,0,.45-.44.45H40.11c-.35,0-.36,0-.36-.36,0-3.38,0-6.77,0-10.15a9.82,9.82,0,0,0-.35-2.8A4.92,4.92,0,0,0,39,16.67a3.84,3.84,0,0,0-2.94-2,5.41,5.41,0,0,0-2.9.3,4.36,4.36,0,0,0-2.54,2.87,9.15,9.15,0,0,0-.43,3c0,3.27,0,6.53,0,9.79a2.81,2.81,0,0,0,0,.29c0,.2-.06.26-.26.25H26.09c-.16,0-.26,0-.24-.22a2.81,2.81,0,0,0,0-.29v-19a2.09,2.09,0,0,0,0-.25c0-.23.08-.27.28-.26H29.9c.22,0,.27.08.27.28,0,.66,0,1.31,0,2Z"></path><path class="cls-2" d="M0,17.27V3.87c0-.53-.08-.46.45-.46H4.09c.39,0,.35,0,.35.35q0,4.31,0,8.61c0,4.71,0,9.42,0,14.13,0,.51-.07.45.46.45H16.37c.5,0,.44-.07.44.43,0,1.13,0,2.27,0,3.4,0,.33,0,.33-.33.33H.34c-.36,0-.34,0-.34-.37Z"></path><path class="cls-2" d="M65.66,16.15V6.49c0-.49,0-.44.44-.44h3.6c.34,0,.34,0,.34.33v4.29A2.8,2.8,0,0,1,70,11c0,.12,0,.17.17.17a2.81,2.81,0,0,1,.29,0h4.3c.33,0,.33,0,.33.33v2.91c0,.31,0,.31-.31.31H70.19a.14.14,0,0,0-.15.15v10a2.87,2.87,0,0,0,.07.77A1.77,1.77,0,0,0,71.83,27c.85,0,1.69,0,2.54,0,.56,0,.56,0,.56.57v3.15c0,.29,0,.3-.29.3-1.3,0-2.59,0-3.89,0a5.64,5.64,0,0,1-2.67-.82,4.93,4.93,0,0,1-2.12-3,9.29,9.29,0,0,1-.3-2.47Z"></path><path class="cls-2" d="M81.32,13.47a.62.62,0,0,0,.27-.3,5.52,5.52,0,0,1,4.93-2.56,4.52,4.52,0,0,1,1.1.11c.14,0,.23.11.22.28,0,1.24,0,2.48,0,3.73l0,0a12.14,12.14,0,0,0-1.48-.13,4.26,4.26,0,0,0-4.14,2.67,9.09,9.09,0,0,0-.81,3.81c0,1.93,0,3.85,0,5.77,0,1.3,0,2.59,0,3.89,0,.31,0,.32-.31.32H77.39c-.38,0-.35,0-.35-.36V11.58c0-.51-.06-.45.46-.45H81c.29,0,.3,0,.3.29v2.05Z"></path><path class="cls-2" d="M23.36,21.08v9.46a1.93,1.93,0,0,1,0,.24c0,.31,0,.32-.32.32H19.35c-.29,0-.29,0-.3-.3V11.64a2.08,2.08,0,0,0,0-.25c0-.22.08-.27.28-.26H23.1c.19,0,.28,0,.26.25a2.62,2.62,0,0,0,0,.28Z"></path><path class="cls-1" d="M145.25,26v4.71c0,.38,0,.38-.38.38H141c-.33,0-.34,0-.34-.34V21.21c0-.31,0-.32.32-.32h3.92c.31,0,.32,0,.32.32Z"></path><path class="cls-2" d="M21.25,3.41A2.7,2.7,0,0,1,24,6.11a2.79,2.79,0,1,1-5.58,0A2.72,2.72,0,0,1,21.25,3.41Z"></path><path class="cls-2" d="M128.54,17a8.74,8.74,0,0,0-5.21-5.63,10.59,10.59,0,0,0-5.43-.63,8.9,8.9,0,0,0-6.15,3.59,10.59,10.59,0,0,0-2,5.36,13.13,13.13,0,0,0,.66,5.93A8.57,8.57,0,0,0,116,31.06a11.25,11.25,0,0,0,7.51-.11A9.24,9.24,0,0,0,127.61,28a6.89,6.89,0,0,0,1.48-3.54H125c-.14,0-.22,0-.27.18a4,4,0,0,1-2.4,2.47,6.6,6.6,0,0,1-5.14.09A4.69,4.69,0,0,1,114.63,25a6.83,6.83,0,0,1-.73-2.32c-.08-.59-.08-.49.42-.49,4.79,0,9.58,0,14.37,0a2.08,2.08,0,0,1,.25,0c.21,0,.28-.05.29-.27A14.62,14.62,0,0,0,128.54,17Zm-14.35,1.59a5.21,5.21,0,0,1,5.28-4,5.05,5.05,0,0,1,5.13,4Z"></path><path class="cls-2" d="M92.81,22.16h14.25a2.81,2.81,0,0,1,.41,0c.21,0,.25-.09.25-.27a14.75,14.75,0,0,0-.79-5.19,8.65,8.65,0,0,0-4-4.83,10.18,10.18,0,0,0-7.33-1,8.81,8.81,0,0,0-6.42,5.28A12.41,12.41,0,0,0,89,26a8.39,8.39,0,0,0,5.14,5,11.43,11.43,0,0,0,4.38.65,10.51,10.51,0,0,0,5.09-1.47,8.45,8.45,0,0,0,3.2-3.27,6.72,6.72,0,0,0,.74-2.35l-.06,0-4.13,0a.2.2,0,0,0-.22.18,4.14,4.14,0,0,1-2.56,2.54,6.74,6.74,0,0,1-4,.32A4.92,4.92,0,0,1,93,24.68a7.22,7.22,0,0,1-.58-2C92.33,22.15,92.32,22.16,92.81,22.16Zm0-3.94A5.12,5.12,0,0,1,96.3,14.8a5.55,5.55,0,0,1,5,.85,4.94,4.94,0,0,1,1.86,2.92H92.76C92.71,18.44,92.78,18.33,92.82,18.22Z"></path></svg>